<?xml version="1.0" encoding="UTF-8" standalone="no"?>
<!DOCTYPE svg PUBLIC "-//W3C//DTD SVG 1.1//EN" "http://www.w3.org/Graphics/SVG/1.1/DTD/svg11.dtd">
<svg width="100%" height="100%" viewBox="0 0 1920 758" version="1.1" xmlns="http://www.w3.org/2000/svg" xmlns:xlink="http://www.w3.org/1999/xlink" xml:space="preserve" xmlns:serif="http://www.serif.com/" style="fill-rule:evenodd;clip-rule:evenodd;stroke-linejoin:round;stroke-miterlimit:2;">
    <g transform="matrix(1,0,0,1,-16441,-8776)">
        <g id="borgsci-light" serif:id="borgsci light" transform="matrix(1,0,0,0.394792,16441,8776)">
            <rect x="0" y="0" width="1920" height="1920" style="fill:none;"/>
            <g transform="matrix(1.1804,0,0,2.98992,-319.301,-2096.46)">
                <g transform="matrix(1.33764,0,0,1.33764,-5257.97,-2678.39)">
                    <path d="M4396.4,2722.4C4388.4,2716.4 4379.2,2710.8 4369.2,2707.2C4382,2693.2 4390,2674.8 4390,2654.8C4390,2632.8 4380.4,2613.2 4366,2598.8C4351.2,2584.8 4330.8,2576 4308.8,2576C4286.4,2576 4266.4,2584.8 4251.6,2598.8C4237.2,2613.2 4228,2632.8 4228,2654.8L4228,2860L4326.4,2860C4353.6,2860 4378.8,2850.8 4396.4,2836.4C4414.4,2822 4425.6,2801.6 4425.6,2779.2C4425.6,2757.2 4414.4,2736.8 4396.4,2722.4ZM4275.6,2623.2C4284,2615.2 4295.6,2610 4308.8,2610C4321.6,2610 4333.2,2615.2 4342,2623.2C4350.4,2631.6 4355.6,2642.4 4355.6,2654.8C4355.6,2666.8 4350.4,2678 4342,2686C4333.6,2694 4322,2699.2 4308.8,2699.2L4262.4,2699.2L4262.4,2654.4C4262.4,2642.4 4267.2,2631.2 4275.6,2623.2ZM4366.8,2812.4C4356.4,2820.8 4342.4,2826 4326.4,2826L4262.4,2826L4262.4,2732.8L4326.4,2732.8C4342.4,2732.8 4356.4,2738 4366.8,2746.4C4377.2,2754.8 4383.6,2766.4 4383.6,2779.2C4383.6,2792.4 4377.2,2804 4366.8,2812.4Z" style="fill:rgb(245,247,248);fill-rule:nonzero;"/>
                </g>
                <g transform="matrix(-0.6239,0,0,0.6239,1124.57,696.627)">
                    <path d="M279.513,389.728C272.808,377.985 287.11,373.45 298.269,371.216C346.714,370.726 366.01,435.582 365.589,473.306C364.564,565.173 299.785,639.23 223.167,687.785C268.016,713.559 319.995,728.303 375.391,728.303C470.196,728.303 554.995,685.118 611.172,617.363C582.907,494.579 492.433,347.488 399.599,315.827C357.638,301.516 284.329,303.198 267.989,355.613C264.582,366.54 265.204,386.022 279.035,389.91L279.513,389.728ZM279.513,389.728C279.576,389.839 279.642,389.952 279.71,390.065C279.916,389.857 280.5,389.77 280.37,389.4L279.513,389.728Z" style="fill:rgb(245,247,248);"/>
                </g>
                <g transform="matrix(1.33764,0,0,1.33764,-5257.97,-2678.39)">
                    <path d="M4451.2,2720C4451.2,2799.6 4515.6,2864 4595.2,2864C4674.8,2864 4739.2,2799.6 4739.2,2720C4739.2,2640.4 4674.8,2576 4595.2,2576C4515.6,2576 4451.2,2640.4 4451.2,2720ZM4518,2797.2C4498,2777.6 4486,2750 4486,2720C4486,2690 4498,2662.4 4518,2642.8C4537.6,2622.8 4565.2,2610.8 4595.2,2610.8C4625.2,2610.8 4652.8,2622.8 4672.4,2642.8C4692.4,2662.4 4704.4,2690 4704.4,2720C4704.4,2750 4692.4,2777.6 4672.4,2797.2C4652.8,2817.2 4625.2,2829.2 4595.2,2829.2C4565.2,2829.2 4537.6,2817.2 4518,2797.2Z" style="fill:rgb(245,247,248);fill-rule:nonzero;"/>
                </g>
                <g transform="matrix(1.33764,0,0,1.33764,-5257.97,-2678.39)">
                    <path d="M4937.6,2860L4937.6,2780.4C4937.6,2758.4 4928.4,2738.4 4913.6,2724.4C4911.2,2722 4908.8,2720 4906.4,2718C4908.8,2716 4911.2,2714 4913.6,2711.6C4928.4,2697.2 4937.6,2677.2 4937.6,2655.6C4937.6,2633.6 4928.4,2613.6 4913.6,2599.2C4898.8,2584.8 4878.4,2576 4856.4,2576C4834,2576 4813.6,2584.8 4798.8,2599.2C4784.4,2613.6 4775.2,2633.2 4775.2,2655.2L4775.2,2860L4809.6,2860L4809.6,2720.4C4822.8,2729.6 4838.8,2734.8 4856.4,2734.8L4856.8,2734.8C4869.6,2735.2 4880.8,2740 4889.2,2748.4C4898,2756.8 4903.2,2768 4903.2,2780.4L4902.8,2860L4937.6,2860ZM4823.2,2687.6C4814.4,2679.2 4809.6,2668 4809.6,2655.6C4809.6,2642.8 4814.4,2631.6 4823.2,2623.2C4831.6,2614.8 4843.2,2610 4856.4,2610C4869.2,2610 4880.8,2614.8 4889.6,2623.2C4898,2631.6 4903.2,2642.8 4903.2,2655.6C4903.2,2668 4898,2679.2 4889.6,2687.6C4880.8,2695.6 4869.6,2700.8 4856.8,2700.8L4856.4,2700.8C4843.2,2700.8 4831.6,2696 4823.2,2687.6Z" style="fill:rgb(245,247,248);fill-rule:nonzero;"/>
                </g>
                <g transform="matrix(1.33764,0,0,1.33764,-5257.97,-2678.39)">
                    <path d="M5110,2720L5110,2754.4L5214,2754.4C5208.4,2770.8 5199.2,2785.6 5187.2,2797.6C5167.6,2817.2 5140,2829.6 5109.6,2829.6C5079.6,2829.6 5052,2817.2 5032.4,2797.6C5012.4,2777.6 5000,2750.4 5000,2720C5000,2689.6 5012.4,2662.4 5032.4,2642.4C5052,2622.8 5079.6,2610.4 5109.6,2610.4C5140,2610.4 5167.6,2622.8 5187.2,2642.4L5211.6,2618C5185.6,2592 5149.6,2576 5109.6,2576C5070,2576 5034,2592 5008,2618C4982,2644 4965.6,2680.4 4965.6,2720C4965.6,2759.6 4982,2796 5008,2822C5034,2848 5070,2864 5109.6,2864L5110,2864C5149.6,2864 5185.6,2848 5211.6,2822C5237.6,2796 5254,2759.6 5254,2720L5110,2720Z" style="fill:rgb(245,247,248);fill-rule:nonzero;"/>
                </g>
            </g>
            <g transform="matrix(1.36846,0,0,3.46629,-13716.5,-31290.9)">
                <path d="M10157.6,9523C10161.5,9523 10165.1,9521.4 10167.6,9518.8C10170.2,9516.3 10171.8,9512.7 10171.8,9508.8C10171.8,9504.8 10170.2,9501.2 10167.6,9498.7C10165.1,9496.1 10161.5,9494.5 10157.6,9494.5L10149.5,9494.5C10148,9494.5 10146.6,9493.9 10145.5,9492.9C10144.5,9491.8 10143.9,9490.4 10143.9,9488.9C10143.9,9487.3 10144.5,9485.9 10145.5,9484.9C10146.6,9483.8 10148,9483.2 10149.5,9483.2L10157.6,9483.2C10159.1,9483.2 10160.5,9483.8 10161.5,9484.9C10162.6,9485.9 10163.2,9487.3 10163.2,9488.9L10171.8,9488.9C10171.8,9484.9 10170.2,9481.3 10167.6,9478.8C10165.1,9476.2 10161.5,9474.6 10157.6,9474.6L10149.5,9474.6C10145.6,9474.6 10142,9476.2 10139.5,9478.8C10136.9,9481.3 10135.3,9484.9 10135.3,9488.9C10135.3,9492.8 10136.9,9496.4 10139.5,9498.9C10142,9501.5 10145.6,9503.1 10149.5,9503.1L10157.6,9503.1C10159.1,9503.1 10160.5,9503.7 10161.5,9504.8C10162.6,9505.8 10163.2,9507.2 10163.2,9508.8C10163.2,9510.3 10162.6,9511.7 10161.5,9512.8C10160.5,9513.8 10159.1,9514.4 10157.6,9514.4L10149.5,9514.4C10148,9514.4 10146.6,9513.8 10145.5,9512.8C10144.5,9511.7 10143.9,9510.3 10143.9,9508.8L10135.3,9508.8C10135.3,9512.7 10136.9,9516.3 10139.5,9518.8C10142,9521.4 10145.6,9523 10149.5,9523L10157.6,9523Z" style="fill:rgb(245,247,248);fill-rule:nonzero;"/>
                <path d="M10214,9510.4C10211.1,9513.7 10206.8,9515.3 10202.4,9515.3C10193.8,9515.3 10187,9507.1 10187,9498.8C10187,9488.7 10194,9482 10202.7,9482C10207.2,9482 10211.2,9483.7 10214,9487L10220,9481.1C10215.5,9476.4 10209.3,9473.7 10202.4,9473.7C10188.6,9473.7 10178.1,9484.1 10178.1,9498.8C10178.1,9512.3 10188.6,9523.8 10202.4,9523.8C10209.2,9523.8 10215.3,9520.8 10219.9,9516.2L10214,9510.4Z" style="fill:rgb(245,247,248);fill-rule:nonzero;"/>
                <path d="M10227.7,9523L10236.3,9523L10236.3,9474.6L10227.7,9474.6L10227.7,9523ZM10237.3,9457.9C10237.3,9455 10234.9,9452.6 10232,9452.6C10229.2,9452.6 10226.8,9455 10226.8,9457.9C10226.8,9460.7 10229.2,9463.1 10232,9463.1C10234.9,9463.1 10237.3,9460.7 10237.3,9457.9Z" style="fill:rgb(245,247,248);fill-rule:nonzero;"/>
                <path d="M10293.9,9498.7C10293.9,9483.7 10283.1,9473.6 10269.5,9473.6C10255.8,9473.6 10245.3,9484 10245.3,9498.7C10245.3,9512.6 10255.8,9523.8 10269.5,9523.8C10280.4,9523.8 10289.3,9517.4 10292.5,9507.4L10283.6,9507.4C10280.9,9513.3 10275.6,9515.4 10269.5,9515.4C10262.4,9515.4 10256.5,9509.9 10254.7,9503.1L10293.6,9503.1C10293.8,9501.7 10293.9,9500.2 10293.9,9498.7ZM10269.9,9481.9C10277.3,9481.9 10283.7,9487 10285,9495.4L10254.3,9495.4C10255.8,9487.2 10262.3,9481.9 10269.9,9481.9Z" style="fill:rgb(245,247,248);fill-rule:nonzero;"/>
                <path d="M10302.4,9523L10310.9,9523L10310.9,9494.7C10310.9,9487.1 10316,9482 10323,9482C10329.8,9482 10334.8,9487.1 10334.8,9494.7L10334.8,9523L10343.5,9523L10343.5,9496.2C10343.5,9481.9 10335,9473.5 10323,9473.5C10310.9,9473.5 10302.4,9481.9 10302.4,9496.2L10302.4,9523Z" style="fill:rgb(245,247,248);fill-rule:nonzero;"/>
                <path d="M10378.9,9514.7C10367.3,9514.7 10362.7,9509.5 10362.7,9497.3L10362.7,9483.2L10380,9483.2L10380,9474.6L10362.7,9474.6L10362.7,9462.5L10354.1,9462.5L10354.1,9499.3C10354.4,9502 10354.9,9509.8 10358.1,9514.9C10362.2,9521.1 10369.9,9523 10378.2,9523L10380.1,9523L10380.1,9514.7L10378.9,9514.7Z" style="fill:rgb(245,247,248);fill-rule:nonzero;"/>
                <path d="M10385.9,9523L10394.5,9523L10394.5,9474.6L10385.9,9474.6L10385.9,9523ZM10395.5,9457.9C10395.5,9455 10393.1,9452.6 10390.2,9452.6C10387.4,9452.6 10385,9455 10385,9457.9C10385,9460.7 10387.4,9463.1 10390.2,9463.1C10393.1,9463.1 10395.5,9460.7 10395.5,9457.9Z" style="fill:rgb(245,247,248);fill-rule:nonzero;"/>
                <path d="M10433.5,9460.8C10422.7,9460.8 10418,9464.4 10417.4,9474.6L10434.6,9474.6L10434.6,9483.2L10417.2,9483.2L10417.2,9523L10408.6,9523L10408.6,9476.3C10408.9,9473.6 10409.5,9465.8 10412.7,9460.8C10416.7,9454.4 10424.5,9452.6 10432.6,9452.6L10434.7,9452.6L10434.7,9460.8L10433.5,9460.8ZM10438.3,9474.6L10446.9,9474.6L10446.9,9523L10438.3,9523L10438.3,9474.6ZM10447.9,9457.9C10447.9,9460.7 10445.5,9463.1 10442.6,9463.1C10439.8,9463.1 10437.4,9460.7 10437.4,9457.9C10437.4,9455 10439.8,9452.6 10442.6,9452.6C10445.5,9452.6 10447.9,9455 10447.9,9457.9Z" style="fill:rgb(245,247,248);fill-rule:nonzero;"/>
                <path d="M10491.7,9510.4C10488.8,9513.7 10484.5,9515.3 10480.1,9515.3C10471.5,9515.3 10464.7,9507.1 10464.7,9498.8C10464.7,9488.7 10471.7,9482 10480.4,9482C10484.9,9482 10488.9,9483.7 10491.7,9487L10497.7,9481.1C10493.2,9476.4 10487,9473.7 10480.1,9473.7C10466.3,9473.7 10455.8,9484.1 10455.8,9498.8C10455.8,9512.3 10466.3,9523.8 10480.1,9523.8C10486.9,9523.8 10493,9520.8 10497.6,9516.2L10491.7,9510.4Z" style="fill:rgb(245,247,248);fill-rule:nonzero;"/>
                <path d="M10580.1,9498.6C10580.1,9492.8 10578.4,9487.7 10575.7,9483.7L10569.3,9490.1C10570.5,9492.5 10571.2,9495.4 10571.2,9498.6C10571.2,9502.2 10570.4,9505.2 10569.1,9507.6L10546.2,9452.4L10536,9452.4L10545.6,9475.5C10536.9,9479.1 10531.1,9487.7 10531.1,9498.6C10531.1,9512.4 10541.6,9523.8 10555.4,9523.8C10558.7,9523.8 10561.9,9523.1 10564.8,9521.9L10565.3,9523L10575.5,9523L10572.7,9516.6C10577.3,9512 10580.1,9505.5 10580.1,9498.6ZM10555.3,9515.3C10546.8,9515.3 10539.9,9507.2 10539.9,9498.7C10539.9,9491.6 10543.5,9486.1 10548.8,9483.5L10561.5,9514.2C10559.6,9514.9 10557.5,9515.3 10555.3,9515.3Z" style="fill:rgb(245,247,248);fill-rule:nonzero;"/>
                <path d="M10653.8,9510.4C10650.9,9513.7 10646.6,9515.3 10642.2,9515.3C10633.6,9515.3 10626.8,9507.1 10626.8,9498.8C10626.8,9488.7 10633.8,9482 10642.5,9482C10647,9482 10651,9483.7 10653.8,9487L10659.8,9481.1C10655.3,9476.4 10649.1,9473.7 10642.2,9473.7C10628.4,9473.7 10617.9,9484.1 10617.9,9498.8C10617.9,9512.3 10628.4,9523.8 10642.2,9523.8C10649,9523.8 10655.1,9520.8 10659.7,9516.2L10653.8,9510.4Z" style="fill:rgb(245,247,248);fill-rule:nonzero;"/>
                <path d="M10667.5,9523L10676.1,9523L10676.1,9499.9C10676.1,9487.5 10681.1,9482 10692.9,9482L10694.3,9482L10694.3,9473.5L10692.2,9473.5C10683.6,9473.5 10675.6,9475.4 10671.5,9482C10667.4,9488.4 10667.5,9498.9 10667.5,9498.9L10667.5,9523Z" style="fill:rgb(245,247,248);fill-rule:nonzero;"/>
                <path d="M10746,9498.7C10746,9483.7 10735.2,9473.6 10721.6,9473.6C10707.9,9473.6 10697.4,9484 10697.4,9498.7C10697.4,9512.6 10707.9,9523.8 10721.6,9523.8C10732.5,9523.8 10741.4,9517.4 10744.6,9507.4L10735.7,9507.4C10733,9513.3 10727.7,9515.4 10721.6,9515.4C10714.5,9515.4 10708.6,9509.9 10706.8,9503.1L10745.7,9503.1C10745.9,9501.7 10746,9500.2 10746,9498.7ZM10722,9481.9C10729.4,9481.9 10735.8,9487 10737.1,9495.4L10706.4,9495.4C10707.9,9487.2 10714.4,9481.9 10722,9481.9Z" style="fill:rgb(245,247,248);fill-rule:nonzero;"/>
                <path d="M10800.9,9523L10800.9,9497.9C10800.4,9483.4 10789.8,9473.7 10776.4,9473.7C10762.8,9473.7 10752.2,9484.1 10752.2,9498.7C10752.2,9512.4 10762.8,9523.8 10776.4,9523.8C10782.7,9523.8 10788.1,9521.5 10792.2,9517.7L10792.2,9523L10800.9,9523ZM10776.4,9515.3C10767.9,9515.3 10761.2,9507.2 10761.2,9498.7C10761.2,9488.7 10768.2,9481.9 10776.9,9481.9C10785.2,9481.9 10792.2,9488.4 10792.2,9498.7C10792.2,9509.7 10784.9,9515.3 10776.4,9515.3Z" style="fill:rgb(245,247,248);fill-rule:nonzero;"/>
                <path d="M10835.9,9514.7C10824.3,9514.7 10819.7,9509.5 10819.7,9497.3L10819.7,9483.2L10837,9483.2L10837,9474.6L10819.7,9474.6L10819.7,9462.5L10811.1,9462.5L10811.1,9499.3C10811.4,9502 10811.9,9509.8 10815.1,9514.9C10819.2,9521.1 10826.9,9523 10835.2,9523L10837.1,9523L10837.1,9514.7L10835.9,9514.7Z" style="fill:rgb(245,247,248);fill-rule:nonzero;"/>
                <path d="M10842.9,9523L10851.5,9523L10851.5,9474.6L10842.9,9474.6L10842.9,9523ZM10852.5,9457.9C10852.5,9455 10850.1,9452.6 10847.2,9452.6C10844.4,9452.6 10842,9455 10842,9457.9C10842,9460.7 10844.4,9463.1 10847.2,9463.1C10850.1,9463.1 10852.5,9460.7 10852.5,9457.9Z" style="fill:rgb(245,247,248);fill-rule:nonzero;"/>
                <path d="M10866.2,9474.6L10857.3,9474.6L10873.3,9518.2C10874.8,9522.2 10876.7,9524 10879.8,9524C10882.9,9524 10884.9,9522.2 10886.4,9518.2L10902.4,9474.6L10893.6,9474.6L10879.9,9512.8L10866.2,9474.6Z" style="fill:rgb(245,247,248);fill-rule:nonzero;"/>
                <path d="M10954,9498.7C10954,9483.7 10943.2,9473.6 10929.6,9473.6C10915.9,9473.6 10905.4,9484 10905.4,9498.7C10905.4,9512.6 10915.9,9523.8 10929.6,9523.8C10940.5,9523.8 10949.4,9517.4 10952.6,9507.4L10943.7,9507.4C10941,9513.3 10935.7,9515.4 10929.6,9515.4C10922.5,9515.4 10916.6,9509.9 10914.8,9503.1L10953.7,9503.1C10953.9,9501.7 10954,9500.2 10954,9498.7ZM10930,9481.9C10937.4,9481.9 10943.8,9487 10945.1,9495.4L10914.4,9495.4C10915.9,9487.2 10922.4,9481.9 10930,9481.9Z" style="fill:rgb(245,247,248);fill-rule:nonzero;"/>
                <path d="M10990.4,9523L10999,9523L10999,9474.6L10990.4,9474.6L10990.4,9523ZM11000,9457.9C11000,9455 10997.6,9452.6 10994.7,9452.6C10991.9,9452.6 10989.5,9455 10989.5,9457.9C10989.5,9460.7 10991.9,9463.1 10994.7,9463.1C10997.6,9463.1 11000,9460.7 11000,9457.9Z" style="fill:rgb(245,247,248);fill-rule:nonzero;"/>
                <path d="M11010.1,9523L11018.6,9523L11018.6,9494.7C11018.6,9487.1 11023.7,9482 11030.7,9482C11037.5,9482 11042.5,9487.1 11042.5,9494.7L11042.5,9523L11051.2,9523L11051.2,9496.2C11051.2,9481.9 11042.7,9473.5 11030.7,9473.5C11018.6,9473.5 11010.1,9481.9 11010.1,9496.2L11010.1,9523Z" style="fill:rgb(245,247,248);fill-rule:nonzero;"/>
                <path d="M11082.1,9523C11086,9523 11089.6,9521.4 11092.1,9518.8C11094.7,9516.3 11096.3,9512.7 11096.3,9508.8C11096.3,9504.8 11094.7,9501.2 11092.1,9498.7C11089.6,9496.1 11086,9494.5 11082.1,9494.5L11074,9494.5C11072.5,9494.5 11071.1,9493.9 11070,9492.9C11069,9491.8 11068.4,9490.4 11068.4,9488.9C11068.4,9487.3 11069,9485.9 11070,9484.9C11071.1,9483.8 11072.5,9483.2 11074,9483.2L11082.1,9483.2C11083.6,9483.2 11085,9483.8 11086,9484.9C11087.1,9485.9 11087.7,9487.3 11087.7,9488.9L11096.3,9488.9C11096.3,9484.9 11094.7,9481.3 11092.1,9478.8C11089.6,9476.2 11086,9474.6 11082.1,9474.6L11074,9474.6C11070.1,9474.6 11066.5,9476.2 11064,9478.8C11061.4,9481.3 11059.8,9484.9 11059.8,9488.9C11059.8,9492.8 11061.4,9496.4 11064,9498.9C11066.5,9501.5 11070.1,9503.1 11074,9503.1L11082.1,9503.1C11083.6,9503.1 11085,9503.7 11086,9504.8C11087.1,9505.8 11087.7,9507.2 11087.7,9508.8C11087.7,9510.3 11087.1,9511.7 11086,9512.8C11085,9513.8 11083.6,9514.4 11082.1,9514.4L11074,9514.4C11072.5,9514.4 11071.1,9513.8 11070,9512.8C11069,9511.7 11068.4,9510.3 11068.4,9508.8L11059.8,9508.8C11059.8,9512.7 11061.4,9516.3 11064,9518.8C11066.5,9521.4 11070.1,9523 11074,9523L11082.1,9523Z" style="fill:rgb(245,247,248);fill-rule:nonzero;"/>
                <path d="M11129.7,9514.7C11118.1,9514.7 11113.5,9509.5 11113.5,9497.3L11113.5,9483.2L11130.8,9483.2L11130.8,9474.6L11113.5,9474.6L11113.5,9462.5L11104.9,9462.5L11104.9,9499.3C11105.2,9502 11105.7,9509.8 11108.9,9514.9C11113,9521.1 11120.7,9523 11129,9523L11130.9,9523L11130.9,9514.7L11129.7,9514.7Z" style="fill:rgb(245,247,248);fill-rule:nonzero;"/>
                <path d="M11136.7,9523L11145.3,9523L11145.3,9474.6L11136.7,9474.6L11136.7,9523ZM11146.3,9457.9C11146.3,9455 11143.9,9452.6 11141,9452.6C11138.2,9452.6 11135.8,9455 11135.8,9457.9C11135.8,9460.7 11138.2,9463.1 11141,9463.1C11143.9,9463.1 11146.3,9460.7 11146.3,9457.9Z" style="fill:rgb(245,247,248);fill-rule:nonzero;"/>
                <path d="M11181.3,9514.7C11169.7,9514.7 11165.1,9509.5 11165.1,9497.3L11165.1,9483.2L11182.4,9483.2L11182.4,9474.6L11165.1,9474.6L11165.1,9462.5L11156.5,9462.5L11156.5,9499.3C11156.8,9502 11157.3,9509.8 11160.5,9514.9C11164.6,9521.1 11172.3,9523 11180.6,9523L11182.5,9523L11182.5,9514.7L11181.3,9514.7Z" style="fill:rgb(245,247,248);fill-rule:nonzero;"/>
                <path d="M11187.6,9501.1C11187.6,9515.4 11196.1,9523.8 11208.2,9523.8C11220.2,9523.8 11228.7,9515.4 11228.7,9501.1L11228.7,9474.6L11220,9474.6L11220,9502.6C11220,9510.2 11215,9515.3 11208.2,9515.3C11201.2,9515.3 11196.1,9510.2 11196.1,9502.6L11196.1,9474.6L11187.6,9474.6L11187.6,9501.1Z" style="fill:rgb(245,247,248);fill-rule:nonzero;"/>
                <path d="M11263.9,9514.7C11252.3,9514.7 11247.7,9509.5 11247.7,9497.3L11247.7,9483.2L11265,9483.2L11265,9474.6L11247.7,9474.6L11247.7,9462.5L11239.1,9462.5L11239.1,9499.3C11239.4,9502 11239.9,9509.8 11243.1,9514.9C11247.2,9521.1 11254.9,9523 11263.2,9523L11265.1,9523L11265.1,9514.7L11263.9,9514.7Z" style="fill:rgb(245,247,248);fill-rule:nonzero;"/>
                <path d="M11316.7,9498.7C11316.7,9483.7 11305.9,9473.6 11292.3,9473.6C11278.6,9473.6 11268.1,9484 11268.1,9498.7C11268.1,9512.6 11278.6,9523.8 11292.3,9523.8C11303.2,9523.8 11312.1,9517.4 11315.3,9507.4L11306.4,9507.4C11303.7,9513.3 11298.4,9515.4 11292.3,9515.4C11285.2,9515.4 11279.3,9509.9 11277.5,9503.1L11316.4,9503.1C11316.6,9501.7 11316.7,9500.2 11316.7,9498.7ZM11292.7,9481.9C11300.1,9481.9 11306.5,9487 11307.8,9495.4L11277.1,9495.4C11278.6,9487.2 11285.1,9481.9 11292.7,9481.9Z" style="fill:rgb(245,247,248);fill-rule:nonzero;"/>
            </g>
        </g>
    </g>
</svg>
