<?xml version="1.0" encoding="UTF-8" standalone="no"?>
<!DOCTYPE svg PUBLIC "-//W3C//DTD SVG 1.1//EN" "http://www.w3.org/Graphics/SVG/1.1/DTD/svg11.dtd">
<svg width="100%" height="100%" viewBox="0 0 2400 2400" version="1.1" xmlns="http://www.w3.org/2000/svg" xmlns:xlink="http://www.w3.org/1999/xlink" xml:space="preserve" xmlns:serif="http://www.serif.com/" style="fill-rule:evenodd;clip-rule:evenodd;stroke-linejoin:round;stroke-miterlimit:2;">
    <g transform="matrix(1,0,0,1,-3873,0)">
        <g id="Artboard1" transform="matrix(0.666667,0,0,0.666667,3873,0)">
            <rect x="0" y="0" width="3600" height="3600" style="fill:none;"/>
            <g transform="matrix(0.954505,0,0,0.954505,81.8242,81.6464)">
                <g transform="matrix(19.1167,0,0,19.1167,78.3124,81.0126)">
                    <path d="M74.844,3.594C77.754,9.16 80.792,14.63 82.031,21.125C83.435,27.161 82.912,59.514 83.094,82.937C59.67,82.756 27.317,83.279 21.281,81.875C14.786,80.636 9.317,77.598 3.75,74.688C5.09,77.475 6.969,83.621 6.969,89.907C6.969,96.193 5.09,102.369 3.75,105.157C9.317,102.247 14.786,99.209 21.281,97.969C27.317,96.566 59.67,97.089 83.093,96.907C82.911,120.33 83.434,152.685 82.03,158.719C80.791,165.214 77.753,170.684 74.843,176.25C77.63,174.91 83.807,173.031 90.093,173.031C96.379,173.031 102.524,174.91 105.312,176.25C102.402,170.683 99.364,165.214 98.124,158.719C96.721,152.684 97.244,120.33 97.062,96.907C120.485,97.088 152.84,96.566 158.874,97.969C165.369,99.208 170.807,102.246 176.374,105.157C175.034,102.369 173.186,96.193 173.186,89.907C173.186,83.621 175.034,77.476 176.374,74.688C170.807,77.598 165.369,80.636 158.874,81.875C152.839,83.279 120.485,82.756 97.062,82.938C97.248,59.512 96.725,27.159 98.129,21.123C99.368,14.628 102.404,9.159 105.314,3.592C102.524,4.932 96.384,6.81 90.098,6.81C83.812,6.81 77.635,4.932 74.848,3.592L74.844,3.594Z" style="fill:rgb(245,247,248);fill-rule:nonzero;"/>
                </g>
                <g transform="matrix(19.1167,0,0,19.1167,78.3124,81.0126)">
                    <path d="M57.297,20.813C58.017,20.755 58.664,20.423 59.238,19.817C59.813,19.212 60.117,18.683 60.15,18.23C60.154,17.893 60.04,17.597 59.807,17.342C59.573,17.086 59.195,16.951 58.671,16.938L34.475,16.938C33.81,16.977 33.211,17.276 32.679,17.835C32.146,18.394 31.864,18.98 31.833,19.593C31.841,19.927 31.985,20.211 32.269,20.445C32.553,20.68 32.936,20.803 33.418,20.813L57.297,20.813Z" style="fill:rgb(245,247,248);fill-rule:nonzero;"/>
                </g>
                <g transform="matrix(19.1167,0,0,19.1167,78.3124,81.0126)">
                    <path d="M145.46,20.813C146.18,20.755 146.827,20.423 147.402,19.817C147.976,19.212 148.28,18.683 148.313,18.23C148.317,17.893 148.203,17.597 147.97,17.342C147.736,17.086 147.358,16.951 146.834,16.938L122.638,16.938C121.973,16.977 121.374,17.276 120.842,17.835C120.309,18.394 120.027,18.98 119.996,19.593C120.004,19.927 120.148,20.211 120.432,20.445C120.716,20.68 121.099,20.803 121.581,20.813L145.46,20.813Z" style="fill:rgb(245,247,248);fill-rule:nonzero;"/>
                </g>
                <g transform="matrix(0.785823,0,0,0.785823,566.9,170.94)">
                    <path d="M216.667,1344.83C216.667,1372.61 217.778,1394.56 220,1410.67C222.222,1426.78 226.528,1439.28 232.917,1448.17C239.306,1457.06 248.472,1462.89 260.417,1465.67C272.361,1468.44 288.056,1470.11 307.5,1470.67L307.5,1502.33L37.5,1502.33L37.5,1470.67C56.944,1470.11 72.639,1468.31 84.583,1465.25C96.528,1462.19 105.833,1456.5 112.5,1448.17C119.167,1439.83 123.611,1428.03 125.833,1412.75C128.056,1397.47 129.167,1376.78 129.167,1350.67L129.167,1012.33C129.167,989 128.194,969.694 126.25,954.417C124.306,939.139 120.417,927.056 114.583,918.167C108.75,909.278 100.278,903.028 89.167,899.417C78.056,895.806 63.611,893.444 45.833,892.333L45.833,860.667L299.167,860.667L299.167,892.333C281.389,892.889 267.083,895.111 256.25,899C245.417,902.889 237.083,909.417 231.25,918.583C225.417,927.75 221.528,940.389 219.583,956.5C217.639,972.611 216.667,993.167 216.667,1018.17L216.667,1344.83Z" style="fill:rgb(245,247,248);fill-rule:nonzero;"/>
                    <path d="M910.833,860.667L934.167,860.667L941.667,1052.33L910.833,1052.33C898.611,1003.44 875,965.111 840,937.333C805,909.556 762.778,895.667 713.333,895.667C679.444,895.667 649.167,902.333 622.5,915.667C595.833,929 573.333,948.167 555,973.167C536.667,998.167 522.639,1028.72 512.917,1064.83C503.194,1100.94 498.333,1141.78 498.333,1187.33C498.333,1276.78 516.944,1345.53 554.167,1393.58C591.389,1441.64 645.278,1465.67 715.833,1465.67C823.056,1465.67 891.944,1408.72 922.5,1294.83L956.667,1294.83L956.667,1502.33L927.5,1502.33L908.333,1436.5C850,1485.94 779.444,1510.67 696.667,1510.67C649.444,1510.67 606.806,1503.17 568.75,1488.17C530.694,1473.17 498.194,1451.92 471.25,1424.42C444.306,1396.92 423.472,1363.44 408.75,1324C394.028,1284.56 386.667,1240.67 386.667,1192.33C386.667,1141.78 394.444,1095.67 410,1054C425.556,1012.33 447.361,976.5 475.417,946.5C503.472,916.5 537.083,893.306 576.25,876.917C615.417,860.528 658.611,852.333 705.833,852.333C739.167,852.333 770.556,857.056 800,866.5C829.444,875.944 861.389,891.222 895.833,912.333L910.833,860.667Z" style="fill:rgb(245,247,248);fill-rule:nonzero;"/>
                </g>
                <g transform="matrix(0.965907,0,0,0.785823,2141.94,367.133)">
                    <path d="M471.186,1161.83C494.689,1201.28 523.39,1221 557.288,1221L557.288,1252.67L326.102,1252.67L326.102,1221C346.441,1221 360.339,1218.64 367.797,1213.92C375.254,1209.19 378.983,1202.67 378.983,1194.33C378.983,1190.44 378.644,1186.42 377.966,1182.25C377.288,1178.08 375.706,1172.94 373.22,1166.83C370.734,1160.72 367.232,1153.22 362.712,1144.33C358.192,1135.44 352.09,1123.78 344.407,1109.33L267.119,967.667L208.814,1057.67C194.802,1079.33 183.051,1097.94 173.559,1113.5C164.068,1129.06 156.497,1142.39 150.847,1153.5C145.198,1164.61 141.13,1173.78 138.644,1181C136.158,1188.22 134.915,1194.33 134.915,1199.33C134.915,1207.67 138.757,1213.36 146.441,1216.42C154.124,1219.47 168.588,1221 189.831,1221L189.831,1252.67L1.356,1252.67L1.356,1221C12.203,1221 22.034,1219.61 30.847,1216.83C39.661,1214.06 48.362,1209.47 56.949,1203.08C65.537,1196.69 74.237,1188.08 83.051,1177.25C91.864,1166.42 101.469,1152.94 111.864,1136.83L244.746,928.5L107.119,697.667C95.819,678.222 83.164,664.194 69.153,655.583C55.141,646.972 38.418,642.667 18.983,642.667L18.983,611L244.068,611L244.068,642.667C214.689,642.667 200,653.5 200,675.167C200,689.056 206.328,707.389 218.983,730.167L292.881,865.167L359.322,761.833C371.977,742.389 380.791,726.556 385.763,714.333C390.734,702.111 393.22,690.444 393.22,679.333C393.22,665.444 389.492,655.861 382.034,650.583C374.576,645.306 361.356,642.667 342.373,642.667L342.373,611L528.814,611L528.814,642.667C517.966,642.667 508.588,643.639 500.678,645.583C492.768,647.528 485.198,651.556 477.966,657.667C470.734,663.778 462.825,672.667 454.237,684.333C445.65,696 435.254,711.556 423.051,731L315.254,901.833L471.186,1161.83Z" style="fill:rgb(245,247,248);fill-rule:nonzero;"/>
                    <path d="M998.644,611L1017.63,611L1023.73,802.667L998.644,802.667C988.701,753.778 969.492,715.444 941.017,687.667C912.542,659.889 878.192,646 837.966,646C810.395,646 785.763,652.667 764.068,666C742.373,679.333 724.068,698.5 709.153,723.5C694.237,748.5 682.825,779.056 674.915,815.167C667.006,851.278 663.051,892.111 663.051,937.667C663.051,1027.11 678.192,1095.86 708.475,1143.92C738.757,1191.97 782.599,1216 840,1216C927.232,1216 983.277,1159.06 1008.14,1045.17L1035.93,1045.17L1035.93,1252.67L1012.2,1252.67L996.61,1186.83C949.153,1236.28 891.751,1261 824.407,1261C785.989,1261 751.299,1253.5 720.339,1238.5C689.379,1223.5 662.938,1202.25 641.017,1174.75C619.096,1147.25 602.147,1113.78 590.169,1074.33C578.192,1034.89 572.203,991 572.203,942.667C572.203,892.111 578.531,846 591.186,804.333C603.842,762.667 621.582,726.833 644.407,696.833C667.232,666.833 694.576,643.639 726.441,627.25C758.305,610.861 793.446,602.667 831.864,602.667C858.983,602.667 884.52,607.389 908.475,616.833C932.429,626.278 958.418,641.556 986.441,662.667L998.644,611Z" style="fill:rgb(245,247,248);fill-rule:nonzero;"/>
                </g>
                <g transform="matrix(0.795897,0,0,0.795897,566.522,1619.83)">
                    <path d="M578.333,1510.67L182.5,989L179.167,989L179.167,1344.83C179.167,1372.61 180.139,1394.56 182.083,1410.67C184.028,1426.78 187.917,1439.28 193.75,1448.17C199.583,1457.06 207.917,1462.89 218.75,1465.67C229.583,1468.44 243.889,1470.11 261.667,1470.67L261.667,1502.33L37.5,1502.33L37.5,1470.67C56.944,1470.11 72.639,1468.31 84.583,1465.25C96.528,1462.19 105.833,1456.5 112.5,1448.17C119.167,1439.83 123.611,1428.03 125.833,1412.75C128.056,1397.47 129.167,1376.78 129.167,1350.67L129.167,1012.33C129.167,989 128.194,969.694 126.25,954.417C124.306,939.139 120.417,927.056 114.583,918.167C108.75,909.278 100.278,903.028 89.167,899.417C78.056,895.806 63.611,893.444 45.833,892.333L45.833,860.667L210.833,860.667L575,1346.5L578.333,1346.5L578.333,1018.17C578.333,990.944 577.361,969.139 575.417,952.75C573.472,936.361 569.583,923.722 563.75,914.833C557.917,905.944 549.583,900.111 538.75,897.333C527.917,894.556 513.611,892.889 495.833,892.333L495.833,860.667L720,860.667L720,892.333C700.556,892.889 684.861,894.694 672.917,897.75C660.972,900.806 651.667,906.5 645,914.833C638.333,923.167 633.889,935.111 631.667,950.667C629.444,966.222 628.333,986.778 628.333,1012.33L628.333,1510.67L578.333,1510.67Z" style="fill:rgb(245,247,248);fill-rule:nonzero;"/>
                    <path d="M968.333,1344.83C968.333,1372.61 969.444,1394.56 971.667,1410.67C973.889,1426.78 978.194,1439.28 984.583,1448.17C990.972,1457.06 1000.14,1462.89 1012.08,1465.67C1024.03,1468.44 1039.72,1470.11 1059.17,1470.67L1059.17,1502.33L789.167,1502.33L789.167,1470.67C808.611,1470.11 824.306,1468.31 836.25,1465.25C848.194,1462.19 857.5,1456.5 864.167,1448.17C870.833,1439.83 875.278,1428.03 877.5,1412.75C879.722,1397.47 880.833,1376.78 880.833,1350.67L880.833,1012.33C880.833,989 879.861,969.694 877.917,954.417C875.972,939.139 872.083,927.056 866.25,918.167C860.417,909.278 851.944,903.028 840.833,899.417C829.722,895.806 815.278,893.444 797.5,892.333L797.5,860.667L1050.83,860.667L1050.83,892.333C1033.06,892.889 1018.75,895.111 1007.92,899C997.083,902.889 988.75,909.417 982.917,918.583C977.083,927.75 973.194,940.389 971.25,956.5C969.306,972.611 968.333,993.167 968.333,1018.17L968.333,1344.83Z" style="fill:rgb(245,247,248);fill-rule:nonzero;"/>
                </g>
                <g transform="matrix(1.21943,0,0,0.806234,2091.77,1812.22)">
                    <path d="M143.251,1120.17C143.251,1141.28 143.985,1158.5 145.455,1171.83C146.924,1185.17 149.862,1195.44 154.27,1202.67C158.678,1209.89 164.738,1214.75 172.452,1217.25C180.165,1219.75 190.45,1221 203.306,1221L203.306,1252.67L24.793,1252.67L24.793,1221C37.649,1221 48.026,1219.75 55.923,1217.25C63.82,1214.75 69.972,1210.03 74.38,1203.08C78.788,1196.14 81.726,1186.42 83.196,1173.92C84.665,1161.42 85.399,1145.44 85.399,1126L85.399,737.667C85.399,716.556 84.573,699.75 82.92,687.25C81.267,674.75 78.329,665.167 74.105,658.5C69.881,651.833 64.279,647.528 57.3,645.583C50.321,643.639 41.322,642.667 30.303,642.667L30.303,611L197.796,611L197.796,642.667C186.777,642.667 177.778,643.778 170.799,646C163.82,648.222 158.219,652.944 153.994,660.167C149.77,667.389 146.924,677.528 145.455,690.583C143.985,703.639 143.251,721.278 143.251,743.5L143.251,949.333L280.992,698.5C288.338,684.611 292.011,673.778 292.011,666C292.011,650.444 281.543,642.667 260.606,642.667L260.606,611L393.388,611L393.388,641.833C386.042,641.833 379.614,642.528 374.105,643.917C368.595,645.306 363.177,648.222 357.851,652.667C352.525,657.111 346.924,663.5 341.047,671.833C335.17,680.167 328.375,691 320.661,704.333L217.08,885.167L377.961,1177.67C387.144,1193.78 395.776,1205.03 403.857,1211.42C411.938,1217.81 422.773,1221 436.364,1221L436.364,1252.67L267.218,1252.67L267.218,1221C281.543,1221 291.827,1219.19 298.072,1215.58C304.316,1211.97 307.438,1206.28 307.438,1198.5C307.438,1194.06 305.969,1187.67 303.03,1179.33C300.092,1171 295.317,1160.72 288.705,1148.5L181.267,948.5L143.251,1015.17L143.251,1120.17Z" style="fill:rgb(245,247,248);fill-rule:nonzero;"/>
                    <path d="M698.072,1020.17L550.964,1020.17C544.72,1042.94 539.394,1063.08 534.986,1080.58C530.579,1098.08 526.997,1113.22 524.242,1126C521.488,1138.78 519.559,1149.61 518.457,1158.5C517.355,1167.39 516.804,1174.61 516.804,1180.17C516.804,1195.72 520.11,1206.42 526.722,1212.25C533.333,1218.08 544.353,1221 559.78,1221L559.78,1252.67L425.895,1252.67L425.895,1221C434.343,1219.33 441.598,1217.11 447.658,1214.33C453.719,1211.56 459.045,1207.67 463.636,1202.67C468.228,1197.67 472.268,1191.14 475.758,1183.08C479.247,1175.03 482.645,1165.17 485.95,1153.5L629.201,611L652.893,611L777.961,1081C786.41,1112.11 793.756,1136.97 800,1155.58C806.244,1174.19 812.305,1188.22 818.182,1197.67C824.059,1207.11 830.395,1213.22 837.19,1216C843.985,1218.78 852.158,1220.17 861.708,1220.17L861.708,1252.67L682.094,1252.67L682.094,1220.17C701.561,1220.17 714.968,1217.39 722.314,1211.83C729.66,1206.28 733.333,1197.11 733.333,1184.33C733.333,1178.78 733.15,1173.64 732.782,1168.92C732.415,1164.19 731.772,1159.06 730.854,1153.5C729.936,1147.94 728.65,1141.69 726.997,1134.75C725.344,1127.81 723.232,1119.61 720.661,1110.17L698.072,1020.17ZM561.983,978.5L687.603,978.5L626.446,732.667L561.983,978.5Z" style="fill:rgb(245,247,248);fill-rule:nonzero;"/>
                </g>
            </g>
        </g>
    </g>
</svg>
